{
	"asset":{
		"generator":"Khronos glTF Blender I/O v3.5.30",
		"version":"2.0"
	},
	"scene":0,
	"scenes":[
		{
			"name":"Scene",
			"nodes":[
				0
			]
		}
	],
	"nodes":[
		{
			"mesh":0,
			"name":"SL.001",
			"rotation":[
				0.7071068286895752,
				0,
				0,
				0.7071068286895752
			],
			"scale":[
				3,
				3,
				3
			]
		}
	],
	"animations":[
		{
			"channels":[
				{
					"sampler":0,
					"target":{
						"node":0,
						"path":"rotation"
					}
				},
				{
					"sampler":1,
					"target":{
						"node":0,
						"path":"translation"
					}
				},
				{
					"sampler":2,
					"target":{
						"node":0,
						"path":"scale"
					}
				}
			],
			"name":"Curve.002Action.004",
			"samplers":[
				{
					"input":4,
					"interpolation":"LINEAR",
					"output":5
				},
				{
					"input":6,
					"interpolation":"LINEAR",
					"output":7
				},
				{
					"input":6,
					"interpolation":"LINEAR",
					"output":8
				}
			]
		}
	],
	"materials":[
		{
			"doubleSided":true,
			"name":"FabricLeatherBuffaloRustic001_8K",
			"pbrMetallicRoughness":{}
		}
	],
	"meshes":[
		{
			"name":"Curve.004",
			"primitives":[
				{
					"attributes":{
						"POSITION":0,
						"TEXCOORD_0":1,
						"NORMAL":2
					},
					"indices":3,
					"material":0
				}
			]
		}
	],
	"accessors":[
		{
			"bufferView":0,
			"componentType":5126,
			"count":14594,
			"max":[
				0.11857486516237259,
				0.009999999776482582,
				-4.9358277465216815e-08
			],
			"min":[
				-0.11762332916259766,
				-0.009999999776482582,
				-0.15224896371364594
			],
			"type":"VEC3"
		},
		{
			"bufferView":1,
			"componentType":5126,
			"count":14594,
			"type":"VEC2"
		},
		{
			"bufferView":2,
			"componentType":5126,
			"count":14594,
			"type":"VEC3"
		},
		{
			"bufferView":3,
			"componentType":5123,
			"count":68652,
			"type":"SCALAR"
		},
		{
			"bufferView":4,
			"componentType":5126,
			"count":201,
			"max":[
				8.333333333333334
			],
			"min":[
				0
			],
			"type":"SCALAR"
		},
		{
			"bufferView":5,
			"componentType":5126,
			"count":201,
			"type":"VEC4"
		},
		{
			"bufferView":6,
			"componentType":5126,
			"count":101,
			"max":[
				8.333333333333334
			],
			"min":[
				4.166666666666667
			],
			"type":"SCALAR"
		},
		{
			"bufferView":7,
			"componentType":5126,
			"count":101,
			"type":"VEC3"
		},
		{
			"bufferView":8,
			"componentType":5126,
			"count":101,
			"type":"VEC3"
		}
	],
	"bufferViews":[
		{
			"buffer":0,
			"byteLength":175128,
			"byteOffset":0,
			"target":34962
		},
		{
			"buffer":0,
			"byteLength":116752,
			"byteOffset":175128,
			"target":34962
		},
		{
			"buffer":0,
			"byteLength":175128,
			"byteOffset":291880,
			"target":34962
		},
		{
			"buffer":0,
			"byteLength":137304,
			"byteOffset":467008,
			"target":34963
		},
		{
			"buffer":0,
			"byteLength":804,
			"byteOffset":604312
		},
		{
			"buffer":0,
			"byteLength":3216,
			"byteOffset":605116
		},
		{
			"buffer":0,
			"byteLength":404,
			"byteOffset":608332
		},
		{
			"buffer":0,
			"byteLength":1212,
			"byteOffset":608736
		},
		{
			"buffer":0,
			"byteLength":1212,
			"byteOffset":609948
		}
	],
	"buffers":[
		{
			"byteLength":611160,
			"uri":"data:application/octet-stream;base64,"
		}
	]
}
