{
	"asset":{
		"generator":"Khronos glTF Blender I/O v3.5.30",
		"version":"2.0"
	},
	"scene":0,
	"scenes":[
		{
			"name":"Scene",
			"nodes":[
				0,
				1,
				2,
				3
			]
		}
	],
	"nodes":[
		{
			"mesh":0,
			"name":"SL",
			"rotation":[
				0.7071068286895752,
				0,
				0,
				0.7071068286895752
			],
			"scale":[
				3,
				3,
				3
			]
		},
		{
			"mesh":1,
			"name":"S",
			"rotation":[
				0.7071068286895752,
				0,
				0,
				0.7071068286895752
			],
			"scale":[
				3,
				3,
				3
			]
		},
		{
			"mesh":2,
			"name":"L",
			"rotation":[
				0.7071068286895752,
				0,
				0,
				0.7071068286895752
			],
			"scale":[
				3,
				3,
				3
			]
		},
		{
			"mesh":3,
			"name":"SL.001",
			"rotation":[
				0.7071068286895752,
				0,
				0,
				0.7071068286895752
			],
			"scale":[
				3,
				3,
				3
			]
		}
	],
	"animations":[
		{
			"channels":[
				{
					"sampler":0,
					"target":{
						"node":0,
						"path":"rotation"
					}
				},
				{
					"sampler":1,
					"target":{
						"node":0,
						"path":"translation"
					}
				},
				{
					"sampler":2,
					"target":{
						"node":0,
						"path":"scale"
					}
				}
			],
			"name":"Curve.002Action",
			"samplers":[
				{
					"input":16,
					"interpolation":"LINEAR",
					"output":17
				},
				{
					"input":18,
					"interpolation":"STEP",
					"output":19
				},
				{
					"input":18,
					"interpolation":"STEP",
					"output":20
				}
			]
		},
		{
			"channels":[
				{
					"sampler":0,
					"target":{
						"node":1,
						"path":"rotation"
					}
				},
				{
					"sampler":1,
					"target":{
						"node":1,
						"path":"translation"
					}
				},
				{
					"sampler":2,
					"target":{
						"node":1,
						"path":"scale"
					}
				}
			],
			"name":"Curve.002Action.001",
			"samplers":[
				{
					"input":16,
					"interpolation":"LINEAR",
					"output":21
				},
				{
					"input":22,
					"interpolation":"LINEAR",
					"output":23
				},
				{
					"input":22,
					"interpolation":"LINEAR",
					"output":24
				}
			]
		},
		{
			"channels":[
				{
					"sampler":0,
					"target":{
						"node":2,
						"path":"rotation"
					}
				},
				{
					"sampler":1,
					"target":{
						"node":2,
						"path":"translation"
					}
				},
				{
					"sampler":2,
					"target":{
						"node":2,
						"path":"scale"
					}
				}
			],
			"name":"Curve.002Action.002",
			"samplers":[
				{
					"input":16,
					"interpolation":"LINEAR",
					"output":25
				},
				{
					"input":22,
					"interpolation":"LINEAR",
					"output":26
				},
				{
					"input":22,
					"interpolation":"LINEAR",
					"output":27
				}
			]
		},
		{
			"channels":[
				{
					"sampler":0,
					"target":{
						"node":3,
						"path":"rotation"
					}
				},
				{
					"sampler":1,
					"target":{
						"node":3,
						"path":"translation"
					}
				},
				{
					"sampler":2,
					"target":{
						"node":3,
						"path":"scale"
					}
				}
			],
			"name":"Curve.002Action.004",
			"samplers":[
				{
					"input":16,
					"interpolation":"LINEAR",
					"output":28
				},
				{
					"input":29,
					"interpolation":"LINEAR",
					"output":30
				},
				{
					"input":29,
					"interpolation":"LINEAR",
					"output":31
				}
			]
		}
	],
	"materials":[
		{
			"doubleSided":true,
			"name":"FabricLeatherBuffaloRustic001_8K",
			"pbrMetallicRoughness":{}
		},
		{
			"doubleSided":true,
			"name":"MetalGoldPaint002_8K",
			"pbrMetallicRoughness":{}
		}
	],
	"meshes":[
		{
			"name":"Curve.005",
			"primitives":[
				{
					"attributes":{
						"POSITION":0,
						"TEXCOORD_0":1,
						"NORMAL":2
					},
					"indices":3,
					"material":0
				}
			]
		},
		{
			"name":"Curve.001",
			"primitives":[
				{
					"attributes":{
						"POSITION":4,
						"TEXCOORD_0":5,
						"NORMAL":6
					},
					"indices":7,
					"material":1
				}
			]
		},
		{
			"name":"Curve.002",
			"primitives":[
				{
					"attributes":{
						"POSITION":8,
						"TEXCOORD_0":9,
						"NORMAL":10
					},
					"indices":11,
					"material":1
				}
			]
		},
		{
			"name":"Curve.004",
			"primitives":[
				{
					"attributes":{
						"POSITION":12,
						"TEXCOORD_0":13,
						"NORMAL":14
					},
					"indices":15,
					"material":0
				}
			]
		}
	],
	"accessors":[
		{
			"bufferView":0,
			"componentType":5126,
			"count":8041,
			"max":[
				0.11857486516237259,
				0.009999999776482582,
				-4.9358277465216815e-08
			],
			"min":[
				-0.11762332916259766,
				-0.009999999776482582,
				-0.15224896371364594
			],
			"type":"VEC3"
		},
		{
			"bufferView":1,
			"componentType":5126,
			"count":8041,
			"type":"VEC2"
		},
		{
			"bufferView":2,
			"componentType":5126,
			"count":8041,
			"type":"VEC3"
		},
		{
			"bufferView":3,
			"componentType":5123,
			"count":31254,
			"type":"SCALAR"
		},
		{
			"bufferView":4,
			"componentType":5126,
			"count":5771,
			"max":[
				0.05339023470878601,
				0.008711782284080982,
				-4.930196695340783e-08
			],
			"min":[
				-0.05296950042247772,
				-0.011288217268884182,
				-0.15224896371364594
			],
			"type":"VEC3"
		},
		{
			"bufferView":5,
			"componentType":5126,
			"count":5771,
			"type":"VEC2"
		},
		{
			"bufferView":6,
			"componentType":5126,
			"count":5771,
			"type":"VEC3"
		},
		{
			"bufferView":7,
			"componentType":5123,
			"count":24168,
			"type":"SCALAR"
		},
		{
			"bufferView":8,
			"componentType":5126,
			"count":3011,
			"max":[
				0.06491885334253311,
				0.01106908731162548,
				-0.003098204731941223
			],
			"min":[
				-0.06490037590265274,
				-0.008930912241339684,
				-0.14920085668563843
			],
			"type":"VEC3"
		},
		{
			"bufferView":9,
			"componentType":5126,
			"count":3011,
			"type":"VEC2"
		},
		{
			"bufferView":10,
			"componentType":5126,
			"count":3011,
			"type":"VEC3"
		},
		{
			"bufferView":11,
			"componentType":5123,
			"count":11898,
			"type":"SCALAR"
		},
		{
			"bufferView":12,
			"componentType":5126,
			"count":14594,
			"max":[
				0.11857486516237259,
				0.009999999776482582,
				-4.9358277465216815e-08
			],
			"min":[
				-0.11762332916259766,
				-0.009999999776482582,
				-0.15224896371364594
			],
			"type":"VEC3"
		},
		{
			"bufferView":13,
			"componentType":5126,
			"count":14594,
			"type":"VEC2"
		},
		{
			"bufferView":14,
			"componentType":5126,
			"count":14594,
			"type":"VEC3"
		},
		{
			"bufferView":15,
			"componentType":5123,
			"count":68652,
			"type":"SCALAR"
		},
		{
			"bufferView":16,
			"componentType":5126,
			"count":201,
			"max":[
				8.333333333333334
			],
			"min":[
				0
			],
			"type":"SCALAR"
		},
		{
			"bufferView":17,
			"componentType":5126,
			"count":201,
			"type":"VEC4"
		},
		{
			"bufferView":18,
			"componentType":5126,
			"count":1,
			"max":[
				8.333333333333334
			],
			"min":[
				8.333333333333334
			],
			"type":"SCALAR"
		},
		{
			"bufferView":19,
			"componentType":5126,
			"count":1,
			"type":"VEC3"
		},
		{
			"bufferView":20,
			"componentType":5126,
			"count":1,
			"type":"VEC3"
		},
		{
			"bufferView":21,
			"componentType":5126,
			"count":201,
			"type":"VEC4"
		},
		{
			"bufferView":22,
			"componentType":5126,
			"count":108,
			"max":[
				8.333333333333334
			],
			"min":[
				3.875
			],
			"type":"SCALAR"
		},
		{
			"bufferView":23,
			"componentType":5126,
			"count":108,
			"type":"VEC3"
		},
		{
			"bufferView":24,
			"componentType":5126,
			"count":108,
			"type":"VEC3"
		},
		{
			"bufferView":25,
			"componentType":5126,
			"count":201,
			"type":"VEC4"
		},
		{
			"bufferView":26,
			"componentType":5126,
			"count":108,
			"type":"VEC3"
		},
		{
			"bufferView":27,
			"componentType":5126,
			"count":108,
			"type":"VEC3"
		},
		{
			"bufferView":28,
			"componentType":5126,
			"count":201,
			"type":"VEC4"
		},
		{
			"bufferView":29,
			"componentType":5126,
			"count":101,
			"max":[
				8.333333333333334
			],
			"min":[
				4.166666666666667
			],
			"type":"SCALAR"
		},
		{
			"bufferView":30,
			"componentType":5126,
			"count":101,
			"type":"VEC3"
		},
		{
			"bufferView":31,
			"componentType":5126,
			"count":101,
			"type":"VEC3"
		}
	],
	"bufferViews":[
		{
			"buffer":0,
			"byteLength":96492,
			"byteOffset":0,
			"target":34962
		},
		{
			"buffer":0,
			"byteLength":64328,
			"byteOffset":96492,
			"target":34962
		},
		{
			"buffer":0,
			"byteLength":96492,
			"byteOffset":160820,
			"target":34962
		},
		{
			"buffer":0,
			"byteLength":62508,
			"byteOffset":257312,
			"target":34963
		},
		{
			"buffer":0,
			"byteLength":69252,
			"byteOffset":319820,
			"target":34962
		},
		{
			"buffer":0,
			"byteLength":46168,
			"byteOffset":389072,
			"target":34962
		},
		{
			"buffer":0,
			"byteLength":69252,
			"byteOffset":435240,
			"target":34962
		},
		{
			"buffer":0,
			"byteLength":48336,
			"byteOffset":504492,
			"target":34963
		},
		{
			"buffer":0,
			"byteLength":36132,
			"byteOffset":552828,
			"target":34962
		},
		{
			"buffer":0,
			"byteLength":24088,
			"byteOffset":588960,
			"target":34962
		},
		{
			"buffer":0,
			"byteLength":36132,
			"byteOffset":613048,
			"target":34962
		},
		{
			"buffer":0,
			"byteLength":23796,
			"byteOffset":649180,
			"target":34963
		},
		{
			"buffer":0,
			"byteLength":175128,
			"byteOffset":672976,
			"target":34962
		},
		{
			"buffer":0,
			"byteLength":116752,
			"byteOffset":848104,
			"target":34962
		},
		{
			"buffer":0,
			"byteLength":175128,
			"byteOffset":964856,
			"target":34962
		},
		{
			"buffer":0,
			"byteLength":137304,
			"byteOffset":1139984,
			"target":34963
		},
		{
			"buffer":0,
			"byteLength":804,
			"byteOffset":1277288
		},
		{
			"buffer":0,
			"byteLength":3216,
			"byteOffset":1278092
		},
		{
			"buffer":0,
			"byteLength":4,
			"byteOffset":1281308
		},
		{
			"buffer":0,
			"byteLength":12,
			"byteOffset":1281312
		},
		{
			"buffer":0,
			"byteLength":12,
			"byteOffset":1281324
		},
		{
			"buffer":0,
			"byteLength":3216,
			"byteOffset":1281336
		},
		{
			"buffer":0,
			"byteLength":432,
			"byteOffset":1284552
		},
		{
			"buffer":0,
			"byteLength":1296,
			"byteOffset":1284984
		},
		{
			"buffer":0,
			"byteLength":1296,
			"byteOffset":1286280
		},
		{
			"buffer":0,
			"byteLength":3216,
			"byteOffset":1287576
		},
		{
			"buffer":0,
			"byteLength":1296,
			"byteOffset":1290792
		},
		{
			"buffer":0,
			"byteLength":1296,
			"byteOffset":1292088
		},
		{
			"buffer":0,
			"byteLength":3216,
			"byteOffset":1293384
		},
		{
			"buffer":0,
			"byteLength":404,
			"byteOffset":1296600
		},
		{
			"buffer":0,
			"byteLength":1212,
			"byteOffset":1297004
		},
		{
			"buffer":0,
			"byteLength":1212,
			"byteOffset":1298216
		}
	],
	"buffers":[
		{
			"byteLength":1299428,
			"uri":"data:application/octet-stream;base64,"
		}
	]
}
